<svg width="406" height="474" viewBox="0 0 406 474" fill="none" xmlns="http://www.w3.org/2000/svg">
<g filter="url(#filter0_d)">
<path fill-rule="evenodd" clip-rule="evenodd" d="M204.143 464.79C258.416 464.79 302.413 449.271 302.413 430.128C302.413 410.985 258.416 395.466 204.143 395.466C149.869 395.466 105.872 410.985 105.872 430.128C105.872 449.271 149.869 464.79 204.143 464.79Z" fill="url(#paint0_linear)"/>
</g>
<path fill-rule="evenodd" clip-rule="evenodd" d="M204.645 458.454C258.919 458.454 302.916 442.935 302.916 423.792C302.916 404.649 258.919 389.13 204.645 389.13C150.372 389.13 106.375 404.649 106.375 423.792C106.375 442.935 150.372 458.454 204.645 458.454Z" fill="url(#paint1_linear)"/>
<path fill-rule="evenodd" clip-rule="evenodd" d="M204.143 455.546C258.416 455.546 302.413 440.028 302.413 420.885C302.413 401.742 258.416 386.223 204.143 386.223C149.869 386.223 105.872 401.742 105.872 420.885C105.872 440.028 149.869 455.546 204.143 455.546Z" fill="url(#paint2_angular)"/>
<path fill-rule="evenodd" clip-rule="evenodd" d="M219.706 187.944H189.256V422.293C189.216 422.428 189.196 422.565 189.196 422.704C189.196 422.843 189.216 422.98 189.256 423.115V423.264C189.256 423.264 189.275 423.269 189.312 423.277C190.242 425.559 196.652 427.326 204.421 427.326C212.154 427.326 218.541 425.576 219.517 423.309C219.64 423.28 219.706 423.264 219.706 423.264V187.944Z" fill="url(#paint3_linear)"/>
<path opacity="0.355294" fill-rule="evenodd" clip-rule="evenodd" d="M215.059 455.369L219.907 421.888C219.907 421.888 217.02 423.514 213.778 424.533C210.603 425.546 207.046 425.595 204.502 425.595C202.29 425.595 198.705 425.372 195.716 424.533C192.104 423.533 189.18 421.888 189.18 421.888L193.422 455.369H215.059Z" fill="url(#paint4_linear)"/>
<path fill-rule="evenodd" clip-rule="evenodd" d="M12.212 190.83H202.51H203.181H393.479C398.583 190.83 403.654 186.76 404.778 181.74C404.778 181.74 405.315 180.138 405.5 177.439C405.632 175.507 405.169 172.545 404.892 171.029C395.64 120.443 376.615 19.6583 376.615 19.6583C375.656 14.5717 370.774 10.5884 365.679 10.5884H203.181H202.51H40.0126C34.9173 10.5884 30.0354 14.5717 29.0765 19.6583C29.0765 19.6583 10.0518 120.443 0.799324 171.029C0.522185 172.545 0.0598591 175.507 0.19191 177.439C0.376454 180.138 0.913034 181.74 0.913034 181.74C2.0372 186.76 7.10843 190.83 12.212 190.83Z" fill="url(#paint5_linear)"/>
<g filter="url(#filter1_iii)">
<path fill-rule="evenodd" clip-rule="evenodd" d="M404.865 170.655C405.928 176.343 401.565 181.598 395.779 181.598H10.2207C4.43499 181.598 0.0714909 176.343 1.13514 170.655L31.3876 8.90047C32.2056 4.52678 36.0236 1.35657 40.4732 1.35657H365.527C369.976 1.35657 373.794 4.52676 374.612 8.90046L404.865 170.655Z" fill="url(#paint6_linear)"/>
</g>
<g filter="url(#filter2_d)">
<path fill-rule="evenodd" clip-rule="evenodd" d="M395.484 164.643L393.324 170.189H12.9596L10.4551 164.643H395.484Z" fill="url(#paint7_radial)"/>
</g>
<path fill-rule="evenodd" clip-rule="evenodd" d="M393.06 159.045L395.659 164.591C395.659 164.591 282.001 164.591 225.172 164.591C153.562 164.591 10.3409 164.591 10.3409 164.591L12.9395 159.045H393.06Z" fill="url(#paint8_radial)"/>
<g filter="url(#filter3_d)">
<path fill-rule="evenodd" clip-rule="evenodd" d="M319.997 26.8007L335.824 146.037H70.4644L86.2568 26.8007H319.997Z" fill="white"/>
</g>
<path fill-rule="evenodd" clip-rule="evenodd" d="M242.711 105.104H244.657L244.69 104.631H240.256L240.212 105.104H242.158L241.745 110.131H242.312L242.711 105.104ZM244.681 108.992C244.712 108.53 245.123 108.264 245.868 108.218L247.162 108.134L247.137 108.588C247.101 109.236 246.467 109.735 245.67 109.735C245.051 109.735 244.651 109.434 244.681 108.992ZM247.107 109.346L247.076 110.131H247.597L247.745 107.334C247.788 106.506 247.18 105.98 246.18 105.98C245.265 105.98 244.542 106.491 244.447 107.212H244.964C245.095 106.724 245.54 106.43 246.149 106.43C246.855 106.43 247.237 106.777 247.204 107.375L247.185 107.726L245.827 107.81C244.768 107.879 244.176 108.286 244.126 108.988C244.076 109.697 244.646 110.177 245.535 110.177C246.218 110.177 246.84 109.845 247.107 109.346ZM249.385 110.131L249.49 107.719C249.523 106.952 250.041 106.43 250.82 106.43C251.563 106.43 251.972 106.846 251.949 107.57L251.87 110.131H252.416L252.49 107.49C252.517 106.56 251.946 105.98 250.987 105.98C250.282 105.98 249.78 106.282 249.514 106.792L249.531 106.026H249.029L248.839 110.131H249.385ZM253.983 106.026H253.359L253.349 106.449H253.974L253.918 109.121C253.903 109.861 254.194 110.154 254.93 110.154C255.046 110.154 255.286 110.143 255.344 110.127L255.35 109.697C255.317 109.701 255.102 109.712 255.045 109.712C254.632 109.712 254.454 109.529 254.461 109.102L254.51 106.449H255.374L255.38 106.026H254.517L254.535 105.043H254.003L253.983 106.026ZM256.734 108.992C256.737 108.53 257.132 108.264 257.873 108.218L259.163 108.134L259.165 108.588C259.169 109.236 258.565 109.735 257.769 109.735C257.15 109.735 256.731 109.434 256.734 108.992ZM259.182 109.346L259.199 110.131H259.72L259.696 107.334C259.689 106.506 259.049 105.98 258.049 105.98C257.134 105.98 256.442 106.491 256.391 107.212H256.909C257.009 106.724 257.437 106.43 258.045 106.43C258.751 106.43 259.155 106.777 259.158 107.375L259.16 107.726L257.808 107.81C256.754 107.879 256.186 108.286 256.179 108.988C256.172 109.697 256.772 110.177 257.661 110.177C258.343 110.177 258.946 109.845 259.182 109.346ZM263.845 106.026L263.917 108.439C263.94 109.216 263.427 109.723 262.652 109.723C261.901 109.723 261.469 109.319 261.456 108.588L261.411 106.026H260.877L260.916 108.671C260.929 109.598 261.537 110.177 262.509 110.177C263.212 110.177 263.737 109.864 263.965 109.361L264.001 110.131H264.518L264.383 106.026H263.845ZM272.567 110.131L269.996 104.631H269.45L267.543 110.131H268.142L268.712 108.447H271.197L271.971 110.131H272.567ZM270.999 107.997H268.856L269.75 105.275L270.999 107.997ZM275.619 106.026L274.574 109.594L272.923 106.026H272.36L274.325 110.131H274.904L276.178 106.026H275.619ZM280.169 107.791H277.431C277.399 106.975 277.897 106.426 278.68 106.426C279.471 106.426 280.069 106.975 280.169 107.791ZM279.084 109.731C278.201 109.731 277.567 109.159 277.475 108.229L277.472 108.203H280.781L280.755 107.982C280.614 106.762 279.786 105.98 278.64 105.98C277.466 105.98 276.778 106.815 276.9 108.088C277.024 109.38 277.887 110.177 279.119 110.177C280.087 110.177 280.761 109.67 280.812 108.969H280.273C280.192 109.418 279.753 109.731 279.084 109.731Z" fill="black"/>
<path fill-rule="evenodd" clip-rule="evenodd" d="M228.828 111.633C232.141 111.633 234.826 109.978 234.826 107.936C234.826 105.894 232.141 104.239 228.828 104.239C225.516 104.239 222.83 105.894 222.83 107.936C222.83 109.978 225.516 111.633 228.828 111.633Z" fill="#FFE146"/>
<path fill-rule="evenodd" clip-rule="evenodd" d="M244.694 118.679H244.13L241.735 123.668L240.502 118.679H239.934L241.37 124.334H241.919L244.694 118.679ZM244.912 123.162C244.96 122.688 245.371 122.414 246.099 122.367L247.364 122.28L247.322 122.747C247.263 123.413 246.625 123.926 245.848 123.926C245.244 123.926 244.865 123.617 244.912 123.162ZM247.265 123.527L247.205 124.334H247.713L247.962 121.458C248.036 120.607 247.463 120.066 246.489 120.066C245.598 120.066 244.873 120.592 244.753 121.332H245.257C245.403 120.831 245.848 120.529 246.441 120.529C247.129 120.529 247.489 120.885 247.434 121.501L247.401 121.861L246.075 121.947C245.04 122.018 244.446 122.437 244.371 123.158C244.294 123.887 244.832 124.381 245.699 124.381C246.365 124.381 246.985 124.04 247.265 123.527ZM249.497 124.334L249.953 118.432H249.437L248.965 124.334H249.497ZM251.346 124.334L251.744 118.432H251.228L250.814 124.334H251.346ZM255.768 121.928H253.099C253.196 121.089 253.767 120.525 254.53 120.525C255.301 120.525 255.797 121.089 255.768 121.928ZM254.406 123.922C253.545 123.922 253.016 123.335 253.072 122.378L253.074 122.351H256.299L256.309 122.124C256.361 120.87 255.677 120.066 254.561 120.066C253.418 120.066 252.615 120.925 252.534 122.233C252.452 123.562 253.168 124.381 254.37 124.381C255.315 124.381 256.051 123.86 256.21 123.139H255.685C255.536 123.601 255.058 123.922 254.406 123.922ZM258.878 124.565L260.67 120.113H260.118L258.706 123.809L257.499 120.113H256.939L258.407 124.361L258.294 124.647C258.074 125.188 257.857 125.38 257.456 125.38C257.37 125.38 257.261 125.368 257.197 125.353L257.181 125.799C257.245 125.811 257.363 125.827 257.448 125.827C258.156 125.827 258.469 125.553 258.878 124.565ZM268.32 121.493H266L266.004 121.963H267.789L267.793 122.163C267.813 123.229 267.086 123.926 265.963 123.926C264.719 123.926 263.919 122.966 263.921 121.473C263.923 120 264.689 119.087 265.917 119.087C266.78 119.087 267.452 119.573 267.699 120.38H268.26C268.024 119.298 267.098 118.589 265.913 118.589C264.371 118.589 263.372 119.722 263.365 121.473C263.357 123.256 264.389 124.424 265.967 124.424C267.481 124.424 268.365 123.531 268.332 122.038L268.32 121.493ZM270.038 124.334L269.958 121.716C269.937 121.034 270.31 120.564 270.915 120.564C271.097 120.564 271.248 120.592 271.32 120.623L271.301 120.11C271.233 120.09 271.106 120.066 270.968 120.066C270.439 120.066 270.046 120.36 269.916 120.862L269.877 120.113H269.388L269.506 124.334H270.038ZM274.988 121.928H272.319C272.331 121.089 272.844 120.525 273.607 120.525C274.378 120.525 274.932 121.089 274.988 121.928ZM273.831 123.922C272.969 123.922 272.38 123.335 272.339 122.378L272.338 122.351H275.563L275.55 122.124C275.474 120.87 274.708 120.066 273.591 120.066C272.448 120.066 271.733 120.925 271.786 122.233C271.84 123.562 272.639 124.381 273.842 124.381C274.786 124.381 275.469 123.86 275.555 123.139H275.03C274.928 123.601 274.483 123.922 273.831 123.922ZM279.542 121.928H276.873C276.864 121.089 277.364 120.525 278.127 120.525C278.898 120.525 279.466 121.089 279.542 121.928ZM278.433 123.922C277.572 123.922 276.968 123.335 276.904 122.378L276.902 122.351H280.128L280.108 122.124C280.002 120.87 279.216 120.066 278.1 120.066C276.957 120.066 276.263 120.925 276.347 122.233C276.433 123.562 277.253 124.381 278.455 124.381C279.4 124.381 280.07 123.86 280.138 123.139H279.613C279.522 123.601 279.085 123.922 278.433 123.922ZM281.846 124.334L281.616 121.853C281.542 121.066 281.975 120.529 282.734 120.529C283.458 120.529 283.914 120.956 283.992 121.701L284.27 124.334H284.803L284.509 121.618C284.405 120.662 283.769 120.066 282.834 120.066C282.148 120.066 281.7 120.376 281.511 120.901L281.422 120.113H280.933L281.313 124.334H281.846ZM288.186 124.334H290.102C291.849 124.334 292.705 123.295 292.435 121.505C292.166 119.718 291.023 118.679 289.332 118.679H287.473L288.186 124.334ZM289.367 119.165C290.76 119.165 291.661 120.004 291.883 121.509C292.105 123.009 291.432 123.848 290.004 123.848H288.676L288.072 119.165H289.367ZM294.492 124.334L294.076 121.716C293.967 121.034 294.28 120.564 294.885 120.564C295.066 120.564 295.221 120.592 295.298 120.623L295.212 120.11C295.142 120.09 295.012 120.066 294.874 120.066C294.345 120.066 293.99 120.36 293.924 120.862L293.789 120.113H293.3L293.96 124.334H294.492Z" fill="black"/>
<path fill-rule="evenodd" clip-rule="evenodd" d="M229.367 125.239C232.68 125.239 235.365 123.583 235.365 121.541C235.365 119.5 232.68 117.844 229.367 117.844C226.055 117.844 223.37 119.5 223.37 121.541C223.37 123.583 226.055 125.239 229.367 125.239Z" fill="#8EE463"/>
<path fill-rule="evenodd" clip-rule="evenodd" d="M241.242 67.3049H240.721L240.034 72.4096H240.572L241.242 67.3049ZM242.368 72.4096L242.637 70.1703C242.723 69.4592 243.253 68.9746 243.996 68.9746C244.705 68.9746 245.067 69.3602 244.996 70.0323L244.745 72.4096H245.267L245.518 69.958C245.606 69.0949 245.101 68.5572 244.186 68.5572C243.515 68.5572 243.014 68.8366 242.725 69.3107L242.795 68.5996H242.316L241.846 72.4096H242.368ZM247.194 72.4096L247.503 68.9923H248.35L248.384 68.5996H247.538L247.577 68.1716C247.618 67.7612 247.813 67.5985 248.181 67.5985C248.285 67.5985 248.395 67.6091 248.478 67.6268L248.511 67.2341C248.41 67.2129 248.3 67.2023 248.173 67.2023C247.488 67.2023 247.128 67.4959 247.065 68.1645L247.025 68.5996H246.445L246.407 68.9923H246.988L246.668 72.4096H247.194ZM249.616 72.4096L249.902 68.5996H249.393L249.093 72.4096H249.616ZM250.071 67.5313C250.084 67.3544 249.942 67.2129 249.754 67.2129C249.567 67.2129 249.398 67.3544 249.384 67.5313C249.371 67.7011 249.517 67.8461 249.705 67.8461C249.894 67.8461 250.058 67.7011 250.071 67.5313ZM251.388 72.4096L251.532 70.1703C251.578 69.4592 252.081 68.9746 252.825 68.9746C253.533 68.9746 253.916 69.3602 253.883 70.0323L253.765 72.4096H254.287L254.401 69.958C254.441 69.0949 253.906 68.5572 252.991 68.5572C252.319 68.5572 251.835 68.8366 251.572 69.3107L251.602 68.5996H251.124L250.866 72.4096H251.388ZM256.036 72.4096L256.171 68.5996H255.662L255.514 72.4096H256.036ZM256.298 67.5313C256.304 67.3544 256.156 67.2129 255.968 67.2129C255.781 67.2129 255.618 67.3544 255.611 67.5313C255.604 67.7011 255.756 67.8461 255.945 67.8461C256.133 67.8461 256.292 67.7011 256.298 67.5313ZM257.617 68.5996H257.022L257.01 68.9923H257.606L257.541 71.4721C257.523 72.1584 257.801 72.4308 258.505 72.4308C258.615 72.4308 258.845 72.4202 258.901 72.406L258.908 72.0063C258.876 72.0098 258.671 72.0204 258.616 72.0204C258.221 72.0204 258.051 71.8506 258.061 71.4544L258.117 68.9923H258.942L258.949 68.5996H258.126L258.147 67.6869H257.641L257.617 68.5996ZM262.744 70.2375H260.13C260.185 69.4805 260.716 68.9711 261.463 68.9711C262.218 68.9711 262.732 69.4805 262.744 70.2375ZM261.508 72.0381C260.664 72.0381 260.117 71.5075 260.126 70.6443L260.126 70.6196H263.286L263.284 70.4144C263.274 69.2824 262.564 68.5572 261.472 68.5572C260.352 68.5572 259.608 69.3319 259.592 70.5134C259.576 71.7127 260.317 72.452 261.496 72.452C262.422 72.452 263.118 71.9815 263.238 71.3306H262.723C262.6 71.748 262.148 72.0381 261.508 72.0381ZM266.953 71.9709L266.803 67.3049H266.282L266.43 72.4096H269.827L269.805 71.9709H266.953ZM274.102 70.5028C274.01 69.3142 273.202 68.5572 272.06 68.5572C270.917 68.5572 270.212 69.3142 270.276 70.5028C270.339 71.6914 271.143 72.452 272.314 72.452C273.485 72.452 274.194 71.6914 274.102 70.5028ZM270.804 70.5028C270.75 69.5547 271.243 68.9746 272.087 68.9746C272.935 68.9746 273.504 69.5512 273.574 70.5028C273.645 71.4544 273.151 72.031 272.287 72.031C271.427 72.031 270.857 71.4544 270.804 70.5028ZM278.703 70.5028C278.576 69.3142 277.747 68.5572 276.604 68.5572C275.462 68.5572 274.779 69.3142 274.877 70.5028C274.975 71.6914 275.801 72.452 276.972 72.452C278.142 72.452 278.829 71.6914 278.703 70.5028ZM275.404 70.5028C275.323 69.5547 275.8 68.9746 276.644 68.9746C277.491 68.9746 278.077 69.5512 278.175 70.5028C278.273 71.4544 277.796 72.031 276.932 72.031C276.072 72.031 275.486 71.4544 275.404 70.5028ZM280.06 69.3885L279.957 68.5996H279.475L280.045 73.6725H280.571L280.334 71.6242C280.64 72.1195 281.213 72.452 281.898 72.452C282.97 72.452 283.599 71.6667 283.44 70.5028C283.283 69.3425 282.454 68.5572 281.404 68.5572C280.744 68.5572 280.225 68.9038 280.06 69.3885ZM280.201 70.5028C280.096 69.6007 280.574 68.9746 281.367 68.9746C282.172 68.9746 282.792 69.5901 282.913 70.5064C283.035 71.4226 282.567 72.031 281.746 72.031C280.938 72.031 280.306 71.412 280.201 70.5028Z" fill="black"/>
<path fill-rule="evenodd" clip-rule="evenodd" d="M227.552 73.5726C230.865 73.5726 233.55 71.9173 233.55 69.8754C233.55 67.8334 230.865 66.1781 227.552 66.1781C224.24 66.1781 221.554 67.8334 221.554 69.8754C221.554 71.9173 224.24 73.5726 227.552 73.5726Z" fill="#27B1F7"/>
<path fill-rule="evenodd" clip-rule="evenodd" d="M245.323 79.4093L242.869 84.1388L241.376 79.4093H240.799L240.142 84.8128H240.629L241.154 80.3791L242.561 84.7866H243.014L245.323 80.3791L244.945 84.8128H245.433L245.903 79.4093H245.323ZM247.095 83.6932C247.13 83.2401 247.511 82.9779 248.195 82.933L249.385 82.8506L249.357 83.2962C249.317 83.9328 248.729 84.4234 247.996 84.4234C247.427 84.4234 247.062 84.1276 247.095 83.6932ZM249.322 84.0414L249.286 84.8128H249.765L249.927 82.0642C249.975 81.2516 249.423 80.7349 248.508 80.7349C247.671 80.7349 247.001 81.2367 246.905 81.9444H247.379C247.505 81.4651 247.917 81.1767 248.474 81.1767C249.121 81.1767 249.467 81.5175 249.431 82.1054L249.409 82.4499L248.163 82.5323C247.191 82.5997 246.641 83.0004 246.586 83.6894C246.53 84.3859 247.048 84.8578 247.867 84.8578C248.495 84.8578 249.071 84.532 249.322 84.0414ZM251.411 84.8128L251.531 82.3114C251.562 81.6598 251.948 81.2104 252.516 81.2104C252.687 81.2104 252.828 81.2367 252.893 81.2666L252.913 80.7761C252.85 80.7573 252.733 80.7349 252.603 80.7349C252.107 80.7349 251.715 81.0157 251.555 81.495L251.575 80.7798H251.115L250.908 84.8128H251.411ZM254.122 84.8128L254.244 80.7798H253.755L253.62 84.8128H254.122ZM254.363 79.6489C254.368 79.4617 254.226 79.3119 254.046 79.3119C253.866 79.3119 253.711 79.4617 253.704 79.6489C253.698 79.8287 253.844 79.9822 254.025 79.9822C254.205 79.9822 254.357 79.8287 254.363 79.6489ZM255.699 83.6932C255.708 83.2401 256.074 82.9779 256.755 82.933L257.94 82.8506L257.938 83.2962C257.934 83.9328 257.373 84.4234 256.641 84.4234C256.071 84.4234 255.69 84.1276 255.699 83.6932ZM257.945 84.0414L257.952 84.8128H258.432L258.438 82.0642C258.439 81.2516 257.859 80.7349 256.943 80.7349C256.106 80.7349 255.465 81.2367 255.409 81.9444H255.883C255.981 81.4651 256.377 81.1767 256.934 81.1767C257.581 81.1767 257.947 81.5175 257.944 82.1054L257.942 82.4499L256.7 82.5323C255.732 82.5997 255.205 83.0004 255.188 83.6894C255.172 84.3859 255.717 84.8578 256.536 84.8578C257.164 84.8578 257.722 84.532 257.945 84.0414ZM260.077 84.8128L260.057 82.4424C260.05 81.6898 260.499 81.1767 261.212 81.1767C261.892 81.1767 262.289 81.5849 262.305 82.2964L262.365 84.8128H262.867L262.797 82.2178C262.773 81.3041 262.22 80.7349 261.342 80.7349C260.697 80.7349 260.252 81.0307 260.034 81.5325L260.012 80.7798H259.553L259.575 84.8128H260.077ZM264.551 84.8128L264.398 80.7798H263.908L264.048 84.8128H264.551ZM264.439 79.6489C264.432 79.4617 264.28 79.3119 264.1 79.3119C263.92 79.3119 263.775 79.4617 263.781 79.6489C263.787 79.8287 263.943 79.9822 264.124 79.9822C264.305 79.9822 264.446 79.8287 264.439 79.6489ZM272.002 84.8128L269.554 79.4093H269.055L267.377 84.8128H267.929L268.432 83.1577H270.714L271.454 84.8128H272.002ZM270.525 82.7158H268.558L269.339 80.0421L270.525 82.7158ZM274.722 80.7798L273.839 84.2848L272.254 80.7798H271.739L273.621 84.8128H274.154L275.233 80.7798H274.722ZM278.936 82.5136H276.424C276.374 81.7122 276.816 81.173 277.533 81.173C278.258 81.173 278.821 81.7122 278.936 82.5136ZM277.992 84.4196C277.179 84.4196 276.582 83.8579 276.474 82.9442L276.471 82.918H279.509L279.479 82.7008C279.314 81.5025 278.534 80.7349 277.486 80.7349C276.411 80.7349 275.801 81.555 275.943 82.8057C276.088 84.0751 276.901 84.8578 278.036 84.8578C278.927 84.8578 279.533 84.3597 279.559 83.6707H279.065C279.002 84.1126 278.607 84.4196 277.992 84.4196Z" fill="black"/>
<path fill-rule="evenodd" clip-rule="evenodd" d="M227.852 85.5807C231.165 85.5807 233.85 83.9254 233.85 81.8834C233.85 79.8415 231.165 78.1862 227.852 78.1862C224.54 78.1862 221.854 79.8415 221.854 81.8834C221.854 83.9254 224.54 85.5807 227.852 85.5807Z" fill="#E785F9"/>
<path fill-rule="evenodd" clip-rule="evenodd" d="M240.097 97.0365H241.933C243.608 97.0365 244.669 96.0683 244.825 94.3987C244.981 92.7327 244.127 91.7646 242.508 91.7646H240.728L240.097 97.0365ZM242.429 92.2176C243.763 92.2176 244.431 92.9994 244.295 94.4024C244.16 95.8016 243.321 96.5834 241.952 96.5834H240.679L241.189 92.2176H242.429ZM248.727 94.7933H246.17C246.283 94.0114 246.842 93.4853 247.573 93.4853C248.311 93.4853 248.774 94.0114 248.727 94.7933ZM247.377 96.6529C246.552 96.6529 246.058 96.1048 246.134 95.2134L246.137 95.1878H249.227L249.241 94.9759C249.319 93.8068 248.682 93.0579 247.614 93.0579C246.518 93.0579 245.73 93.858 245.622 95.0782C245.513 96.3167 246.18 97.0803 247.333 97.0803C248.238 97.0803 248.955 96.5944 249.124 95.9222H248.621C248.467 96.3533 248.002 96.6529 247.377 96.6529ZM256.425 97.0365L254.532 91.7646H254.022L251.727 97.0365H252.287L252.978 95.4217H255.299L255.868 97.0365H256.425ZM255.156 94.9906H253.154L254.243 92.382L255.156 94.9906ZM257.752 97.0365L257.79 94.7239C257.802 93.9895 258.272 93.489 258.999 93.489C259.692 93.489 260.084 93.8872 260.082 94.5814L260.076 97.0365H260.586L260.585 94.5047C260.585 93.6132 260.037 93.0579 259.142 93.0579C258.485 93.0579 258.024 93.3465 257.789 93.8361L257.786 93.1017H257.318L257.241 97.0365H257.752ZM264.666 97.0365L264.657 96.6309H262.165L264.573 93.4707L264.564 93.1017H261.557L261.559 93.5073H264.002L261.579 96.6711L261.581 97.0365H264.666ZM265.943 95.9441C265.929 95.502 266.288 95.2463 266.979 95.2025L268.181 95.1221L268.2 95.5568C268.228 96.1779 267.683 96.6565 266.938 96.6565C266.36 96.6565 265.957 96.3679 265.943 95.9441ZM268.245 96.2839L268.29 97.0365H268.778L268.648 94.3549C268.61 93.5621 267.993 93.0579 267.06 93.0579C266.206 93.0579 265.579 93.5475 265.558 94.238H266.041C266.117 93.7703 266.505 93.489 267.073 93.489C267.732 93.489 268.122 93.8215 268.148 94.395L268.163 94.7312L266.903 94.8115C265.921 94.8773 265.405 95.2682 265.425 95.9404C265.444 96.62 266.022 97.0803 266.854 97.0803C267.492 97.0803 268.043 96.7625 268.245 96.2839ZM275.841 95.5897C275.775 94.859 275.201 94.3658 274.436 94.2781L274.434 94.2526C275.007 94.1503 275.385 93.6498 275.333 93.0652C275.264 92.287 274.584 91.7646 273.655 91.7646H271.665L272.02 97.0365H274.085C275.264 97.0365 275.922 96.4885 275.841 95.5897ZM273.581 92.2067C274.303 92.2067 274.768 92.5464 274.817 93.12C274.87 93.7411 274.411 94.1064 273.579 94.1064H272.34L272.206 92.2067H273.581ZM272.37 94.5375H273.745C274.694 94.5375 275.244 94.9065 275.302 95.5641C275.359 96.2181 274.887 96.5944 273.98 96.5944H272.515L272.37 94.5375ZM277.477 97.0365L276.931 91.5344H276.437L276.966 97.0365H277.477ZM280.937 93.1017L280.075 96.5213L278.421 93.1017H277.896L279.86 97.0365H280.401L281.458 93.1017H280.937ZM285.557 96.1998L285.691 97.0365H286.179L285.352 91.5344H284.855L285.204 93.9091C284.898 93.4013 284.327 93.0579 283.67 93.0579C282.658 93.0579 282.044 93.8653 282.198 95.0673C282.353 96.2692 283.196 97.0803 284.24 97.0803C284.917 97.0803 285.396 96.7332 285.557 96.1998ZM285.378 95.0673C285.517 96.0062 285.059 96.6456 284.261 96.6456C283.466 96.6456 282.839 96.0172 282.714 95.0673C282.59 94.121 283.041 93.489 283.821 93.489C284.605 93.489 285.241 94.1357 285.378 95.0673Z" fill="black"/>
<path fill-rule="evenodd" clip-rule="evenodd" d="M228.412 98.3022C231.724 98.3022 234.41 96.6469 234.41 94.605C234.41 92.563 231.724 90.9077 228.412 90.9077C225.099 90.9077 222.414 92.563 222.414 94.605C222.414 96.6469 225.099 98.3022 228.412 98.3022Z" fill="#FB5352"/>
<path fill-rule="evenodd" clip-rule="evenodd" d="M104.96 40.7993L110.996 46.2472H113.926L106.693 39.7677L114.853 34.618H112.047L103.209 40.2916H103.083L104.049 34.618H101.824L99.8221 46.2472H102.115L102.77 42.1854L104.96 40.7993ZM122.215 40.9444H130.726L130.848 39.6549H122.365L122.809 35.9235H131.667L131.794 34.618H120.742L119.32 46.2472H130.71L130.826 44.9417H121.759L122.215 40.9444ZM151.528 34.618H148.993L143.798 39.8403H143.722L139.178 34.618H136.644L142.542 41.2425L142.231 46.2472H144.525L144.807 41.2425L151.528 34.618ZM159.166 37.1485L169.042 46.2472H171.272L171.15 34.618H168.95L168.993 43.7489H168.879L159.073 34.618H156.909L156.594 46.2472H158.862L159.054 37.1485H159.166ZM186.051 46.4406C191.264 46.4406 194.373 44.1277 194.119 40.4366C193.857 36.7456 190.526 34.4246 185.472 34.4246C180.419 34.4246 177.32 36.7456 177.42 40.4366C177.516 44.1277 180.838 46.4406 186.051 46.4406ZM185.99 45.1028C182.242 45.1028 179.834 43.2976 179.742 40.4366C179.648 37.5676 181.881 35.7624 185.54 35.7624C189.198 35.7624 191.611 37.5676 191.796 40.4366C191.976 43.2976 189.738 45.1028 185.99 45.1028ZM211.469 35.9235L211.31 34.618H197.589L197.698 35.9235H203.467L204.444 46.2472H206.737L205.7 35.9235H211.469ZM220.112 40.9444H228.624L228.418 39.6549H219.935L219.413 35.9235H228.271L228.053 34.618H217.001L218.527 46.2472H229.917L229.716 44.9417H220.649L220.112 40.9444Z" fill="black"/>
<path d="M96.8863 53.9183H309.114" stroke="#ABABAB" stroke-width="1.70919" stroke-linecap="square"/>
<path fill-rule="evenodd" clip-rule="evenodd" d="M100.769 108.486L149.453 93.8177L160.314 63.1697C160.314 63.1697 117.636 59.592 100.257 83.5618C100.257 83.5618 90.5462 97.7531 100.769 108.486" fill="#27B1F6"/>
<path fill-rule="evenodd" clip-rule="evenodd" d="M192.156 77.7773C190.549 76.5228 188.741 75.2668 186.716 74.0131C186.716 74.0131 176.65 67.7986 164.124 66.7435L154.457 96.3658L192.156 77.7773Z" fill="#E885F9"/>
<path fill-rule="evenodd" clip-rule="evenodd" d="M192.207 77.817L154.475 96.3118L154.354 96.6803L202.916 101.162C204.63 94.17 202.698 86.0266 192.207 77.817Z" fill="#FB5352"/>
<path fill-rule="evenodd" clip-rule="evenodd" d="M203.075 100.457L154.343 96.7168L154.175 97.2297L153.622 97.4008L170.482 127.553L172.796 127.716C177.222 126.194 181.864 124.154 186.716 121.501C186.716 121.501 200.551 112.635 203.075 100.457Z" fill="#FFE244"/>
<path fill-rule="evenodd" clip-rule="evenodd" d="M186.176 121.795L153.591 97.4108L109.109 111.183C109.109 111.183 136.535 148.551 186.176 121.795Z" fill="#8FE563"/>
<defs>
<filter id="filter0_d" x="96.8723" y="386.466" width="214.541" height="87.3235" filterUnits="userSpaceOnUse" color-interpolation-filters="sRGB">
<feFlood flood-opacity="0" result="BackgroundImageFix"/>
<feColorMatrix in="SourceAlpha" type="matrix" values="0 0 0 0 0 0 0 0 0 0 0 0 0 0 0 0 0 0 127 0"/>
<feOffset/>
<feGaussianBlur stdDeviation="4.5"/>
<feColorMatrix type="matrix" values="0 0 0 0 0 0 0 0 0 0 0 0 0 0 0 0 0 0 0.559981 0"/>
<feBlend mode="normal" in2="BackgroundImageFix" result="effect1_dropShadow"/>
<feBlend mode="normal" in="SourceGraphic" in2="effect1_dropShadow" result="shape"/>
</filter>
<filter id="filter1_iii" x="0.974854" y="1.35657" width="404.05" height="180.241" filterUnits="userSpaceOnUse" color-interpolation-filters="sRGB">
<feFlood flood-opacity="0" result="BackgroundImageFix"/>
<feBlend mode="normal" in="SourceGraphic" in2="BackgroundImageFix" result="shape"/>
<feColorMatrix in="SourceAlpha" type="matrix" values="0 0 0 0 0 0 0 0 0 0 0 0 0 0 0 0 0 0 127 0" result="hardAlpha"/>
<feOffset dy="6"/>
<feComposite in2="hardAlpha" operator="arithmetic" k2="-1" k3="1"/>
<feColorMatrix type="matrix" values="0 0 0 0 0 0 0 0 0 0.556863 0 0 0 0 0.898039 0 0 0 1 0"/>
<feBlend mode="normal" in2="shape" result="effect1_innerShadow"/>
<feColorMatrix in="SourceAlpha" type="matrix" values="0 0 0 0 0 0 0 0 0 0 0 0 0 0 0 0 0 0 127 0" result="hardAlpha"/>
<feOffset dx="6"/>
<feComposite in2="hardAlpha" operator="arithmetic" k2="-1" k3="1"/>
<feColorMatrix type="matrix" values="0 0 0 0 0 0 0 0 0 0.556863 0 0 0 0 0.898039 0 0 0 1 0"/>
<feBlend mode="normal" in2="effect1_innerShadow" result="effect2_innerShadow"/>
<feColorMatrix in="SourceAlpha" type="matrix" values="0 0 0 0 0 0 0 0 0 0 0 0 0 0 0 0 0 0 127 0" result="hardAlpha"/>
<feOffset dx="-6"/>
<feComposite in2="hardAlpha" operator="arithmetic" k2="-1" k3="1"/>
<feColorMatrix type="matrix" values="0 0 0 0 0 0 0 0 0 0.556863 0 0 0 0 0.898039 0 0 0 1 0"/>
<feBlend mode="normal" in2="effect2_innerShadow" result="effect3_innerShadow"/>
</filter>
<filter id="filter2_d" x="1.45508" y="155.643" width="403.029" height="23.5459" filterUnits="userSpaceOnUse" color-interpolation-filters="sRGB">
<feFlood flood-opacity="0" result="BackgroundImageFix"/>
<feColorMatrix in="SourceAlpha" type="matrix" values="0 0 0 0 0 0 0 0 0 0 0 0 0 0 0 0 0 0 127 0"/>
<feOffset/>
<feGaussianBlur stdDeviation="4.5"/>
<feColorMatrix type="matrix" values="0 0 0 0 0.00129279 0 0 0 0 0.17878 0 0 0 0 0.316566 0 0 0 1 0"/>
<feBlend mode="normal" in2="BackgroundImageFix" result="effect1_dropShadow"/>
<feBlend mode="normal" in="SourceGraphic" in2="effect1_dropShadow" result="shape"/>
</filter>
<filter id="filter3_d" x="70.4644" y="26.8007" width="265.36" height="122.236" filterUnits="userSpaceOnUse" color-interpolation-filters="sRGB">
<feFlood flood-opacity="0" result="BackgroundImageFix"/>
<feColorMatrix in="SourceAlpha" type="matrix" values="0 0 0 0 0 0 0 0 0 0 0 0 0 0 0 0 0 0 127 0"/>
<feOffset dy="3"/>
<feColorMatrix type="matrix" values="0 0 0 0 0.0207217 0 0 0 0 0.478213 0 0 0 0 0.680272 0 0 0 1 0"/>
<feBlend mode="normal" in2="BackgroundImageFix" result="effect1_dropShadow"/>
<feBlend mode="normal" in="SourceGraphic" in2="effect1_dropShadow" result="shape"/>
</filter>
<linearGradient id="paint0_linear" x1="104.768" y1="461.07" x2="284.444" y2="467.326" gradientUnits="userSpaceOnUse">
<stop stop-color="#837E7C"/>
<stop offset="0.0439704" stop-color="#A8AAB1"/>
<stop offset="0.0725272" stop-color="#C3D0D9"/>
<stop offset="0.11227" stop-color="#DCE7ED"/>
<stop offset="0.381831" stop-color="#A2BACB"/>
<stop offset="0.381831" stop-color="#A2BACB"/>
<stop offset="0.382702" stop-color="#A2BACB"/>
<stop offset="0.633443" stop-color="#6B90AC"/>
<stop offset="0.702567" stop-color="#97B2C5"/>
<stop offset="0.77556" stop-color="#A4BCC7"/>
<stop offset="0.821209" stop-color="#97A2A7"/>
<stop offset="0.865192" stop-color="#999791"/>
<stop offset="0.927256" stop-color="#968F86"/>
<stop offset="0.959719" stop-color="#898075"/>
<stop offset="0.959719" stop-color="#898075"/>
<stop offset="1" stop-color="#786E61"/>
</linearGradient>
<linearGradient id="paint1_linear" x1="106.375" y1="461.552" x2="302.916" y2="461.552" gradientUnits="userSpaceOnUse">
<stop stop-color="#88BFEA"/>
<stop offset="0.363446" stop-color="#FEFEFF"/>
<stop offset="0.557577" stop-color="white"/>
<stop offset="0.629968" stop-color="white"/>
<stop offset="0.632955" stop-color="white"/>
<stop offset="1" stop-color="#76B2F0"/>
</linearGradient>
<radialGradient id="paint2_angular" cx="0" cy="0" r="1" gradientUnits="userSpaceOnUse" gradientTransform="translate(204.143 420.885) scale(98.2705 34.6618)">
<stop offset="0.0921782" stop-color="#D4E6EF"/>
<stop offset="0.448002" stop-color="#DFEBF0"/>
<stop offset="0.534038" stop-color="#A7C4DA"/>
<stop offset="0.68065" stop-color="#B7CFE2"/>
<stop offset="0.886916" stop-color="#B7CFE2"/>
<stop offset="0.93618" stop-color="#AAC4D9"/>
<stop offset="1" stop-color="#C3D9EC"/>
</radialGradient>
<linearGradient id="paint3_linear" x1="189.196" y1="424.635" x2="219.706" y2="424.635" gradientUnits="userSpaceOnUse">
<stop stop-color="#837E7C"/>
<stop offset="0.0439704" stop-color="#A8AAB1"/>
<stop offset="0.0725272" stop-color="#C3D0D9"/>
<stop offset="0.11227" stop-color="#DCE7ED"/>
<stop offset="0.681966" stop-color="#B6CCD6"/>
<stop offset="0.702567" stop-color="#97B2C5"/>
<stop offset="0.77556" stop-color="#A4BCC7"/>
<stop offset="0.821209" stop-color="#97A2A7"/>
<stop offset="0.865192" stop-color="#999791"/>
<stop offset="0.927256" stop-color="#968F86"/>
<stop offset="1" stop-color="#786E61"/>
</linearGradient>
<linearGradient id="paint4_linear" x1="189.18" y1="454.992" x2="219.907" y2="454.992" gradientUnits="userSpaceOnUse">
<stop stop-color="#837E7C"/>
<stop offset="0.0439704" stop-color="#A8AAB1"/>
<stop offset="0.0725272" stop-color="#C3D0D9"/>
<stop offset="0.11227" stop-color="#DCE7ED"/>
<stop offset="0.681966" stop-color="#B6CCD6"/>
<stop offset="0.702567" stop-color="#97B2C5"/>
<stop offset="0.77556" stop-color="#A4BCC7"/>
<stop offset="0.821209" stop-color="#97A2A7"/>
<stop offset="0.865192" stop-color="#999791"/>
<stop offset="0.927256" stop-color="#968F86"/>
<stop offset="1" stop-color="#786E61"/>
</linearGradient>
<linearGradient id="paint5_linear" x1="192.429" y1="181.566" x2="192.429" y2="190.83" gradientUnits="userSpaceOnUse">
<stop stop-color="#1D86CB"/>
<stop offset="1" stop-color="#094275"/>
</linearGradient>
<linearGradient id="paint6_linear" x1="-0.911377" y1="1.35657" x2="-0.911377" y2="181.598" gradientUnits="userSpaceOnUse">
<stop stop-color="#0299FB"/>
<stop offset="1" stop-color="#6EDAFE"/>
</linearGradient>
<radialGradient id="paint7_radial" cx="0" cy="0" r="1" gradientUnits="userSpaceOnUse" gradientTransform="translate(202.969 153.551) rotate(90) scale(8.32235 8840.91)">
<stop stop-color="#007AA8"/>
<stop offset="1" stop-color="#004C87"/>
</radialGradient>
<radialGradient id="paint8_radial" cx="0" cy="0" r="1" gradientUnits="userSpaceOnUse" gradientTransform="translate(203 151.123) rotate(90) scale(8.32235 8847.56)">
<stop stop-color="#A4E9FC"/>
<stop offset="1" stop-color="#5DDDFC"/>
</radialGradient>
</defs>
</svg>
