<svg width="512" height="512" viewBox="0 0 512 512" fill="none" xmlns="http://www.w3.org/2000/svg">
<g clip-path="url(#clip0)">
<g filter="url(#filter0_d)">
<path d="M255.379 468.736C373.212 468.736 468.736 373.212 468.736 255.379C468.736 137.545 373.212 42.0219 255.379 42.0219C137.545 42.0219 42.0219 137.545 42.0219 255.379C42.0219 373.212 137.545 468.736 255.379 468.736Z" fill="url(#paint0_linear)" stroke="url(#paint1_linear)" stroke-width="17.9562"/>
<path fill-rule="evenodd" clip-rule="evenodd" d="M162.211 351.082C162.211 351.082 172.831 348.978 194.441 338.007C194.441 338.007 185.543 379.338 128.182 383.596C128.182 383.596 131.141 332.997 172.455 316.172C172.455 316.172 162.211 340.708 162.211 351.082Z" fill="black"/>
<path fill-rule="evenodd" clip-rule="evenodd" d="M307.158 238.434C322.034 238.434 334.093 226.375 334.093 211.5C334.093 196.624 322.034 184.565 307.158 184.565C292.283 184.565 280.224 196.624 280.224 211.5C280.224 226.375 292.283 238.434 307.158 238.434ZM181.524 276.519L170.739 307.828C170.739 307.828 189.862 312.152 204.326 345.264L238.097 331.203C238.097 331.203 254.421 352.906 234.411 415.8C234.411 415.8 292.616 379.366 293.519 300.581C293.519 300.581 377.359 257.659 390.368 123.247C386.853 122.109 294.076 118.344 213.291 222.85C213.291 222.85 138.058 226.358 101.699 278.927C104.524 277.111 140.853 259.998 181.524 276.519Z" fill="black"/>
<path fill-rule="evenodd" clip-rule="evenodd" d="M169.141 317.6C169.141 317.6 160.109 337.28 160.755 346.312C160.755 346.312 169.787 350.505 191.398 339.534C191.398 339.534 180.435 376.955 128.497 380.824C128.497 380.824 128.82 335.987 169.141 317.6" fill="url(#paint2_linear)"/>
<path fill-rule="evenodd" clip-rule="evenodd" d="M304.938 234.078C319.813 234.078 331.872 222.02 331.872 207.144C331.872 192.269 319.813 180.21 304.938 180.21C290.062 180.21 278.003 192.269 278.003 207.144C278.003 222.02 290.062 234.078 304.938 234.078ZM104.869 274.706C104.869 274.706 138.626 256.588 179.45 272.345L171.414 306.093C171.414 306.093 190.699 308.024 205.163 341.135L236.021 328.269C236.021 328.269 252.738 347.24 236.021 410.563C236.021 410.563 290.724 373.842 289.593 297.582C289.593 297.582 372.64 258.608 387.329 123.021C387.329 123.021 291.856 113.989 211.071 218.494C211.071 218.494 144.686 222.31 104.869 274.706" fill="url(#paint3_linear)"/>
</g>
</g>
<defs>
<filter id="filter0_d" x="-2.95621" y="16.0438" width="516.67" height="516.67" filterUnits="userSpaceOnUse" color-interpolation-filters="sRGB">
<feFlood flood-opacity="0" result="BackgroundImageFix"/>
<feColorMatrix in="SourceAlpha" type="matrix" values="0 0 0 0 0 0 0 0 0 0 0 0 0 0 0 0 0 0 127 0"/>
<feOffset dy="19"/>
<feGaussianBlur stdDeviation="18"/>
<feColorMatrix type="matrix" values="0 0 0 0 0 0 0 0 0 0 0 0 0 0 0 0 0 0 0.237404 0"/>
<feBlend mode="normal" in2="BackgroundImageFix" result="effect1_dropShadow"/>
<feBlend mode="normal" in="SourceGraphic" in2="effect1_dropShadow" result="shape"/>
</filter>
<linearGradient id="paint0_linear" x1="51" y1="51" x2="51" y2="459.757" gradientUnits="userSpaceOnUse">
<stop stop-color="#CFE3EA"/>
<stop offset="0.481627" stop-color="#A4AFB2"/>
<stop offset="1" stop-color="#7A7B7B"/>
</linearGradient>
<linearGradient id="paint1_linear" x1="51" y1="51" x2="51" y2="459.757" gradientUnits="userSpaceOnUse">
<stop stop-color="#EEFAFE"/>
<stop offset="1" stop-color="#999897"/>
</linearGradient>
<linearGradient id="paint2_linear" x1="100.862" y1="276.338" x2="100.862" y2="395.117" gradientUnits="userSpaceOnUse">
<stop stop-color="#6C7071"/>
<stop offset="1" stop-color="#272A2C"/>
</linearGradient>
<linearGradient id="paint3_linear" x1="-19.2314" y1="-64.9661" x2="-19.2314" y2="475.609" gradientUnits="userSpaceOnUse">
<stop stop-color="#6C7071"/>
<stop offset="1" stop-color="#272A2C"/>
</linearGradient>
<clipPath id="clip0">
<rect width="512" height="512" fill="white"/>
</clipPath>
</defs>
</svg>
