<svg width="512" height="512" viewBox="0 0 512 512" fill="none" xmlns="http://www.w3.org/2000/svg">
<g clip-path="url(#clip0)">
<g filter="url(#filter0_di)">
<path fill-rule="evenodd" clip-rule="evenodd" d="M255.854 460.708C368.992 460.708 460.708 368.992 460.708 255.854C460.708 142.716 368.992 51 255.854 51C142.716 51 51 142.716 51 255.854C51 368.992 142.716 460.708 255.854 460.708Z" fill="url(#paint0_radial)"/>
<path d="M255.854 470.562C374.434 470.562 470.562 374.434 470.562 255.854C470.562 137.274 374.434 41.146 255.854 41.146C137.274 41.146 41.146 137.274 41.146 255.854C41.146 374.434 137.274 470.562 255.854 470.562Z" stroke="url(#paint1_linear)" stroke-width="19.708"/>
</g>
<path fill-rule="evenodd" clip-rule="evenodd" d="M255.854 460.708C368.992 460.708 460.708 368.992 460.708 255.854C460.708 142.716 368.992 51 255.854 51C142.716 51 51 142.716 51 255.854C51 368.992 142.716 460.708 255.854 460.708Z" fill="url(#paint2_linear)"/>
<path fill-rule="evenodd" clip-rule="evenodd" d="M256.007 59.835C254.516 59.835 253.308 61.0437 253.308 62.5347V97.6307C253.308 99.1217 254.516 100.33 256.007 100.33C257.498 100.33 258.707 99.1217 258.707 97.6307V62.5347C258.707 61.0437 257.498 59.835 256.007 59.835ZM256.12 410.992C254.629 410.992 253.42 412.201 253.42 413.692V448.788C253.42 450.279 254.629 451.488 256.12 451.488C257.611 451.488 258.819 450.279 258.819 448.788V413.692C258.819 412.201 257.611 410.992 256.12 410.992ZM290.994 65.6864C291.278 64.2228 292.695 63.2669 294.159 63.5514C295.623 63.8359 296.578 65.253 296.294 66.7166L289.597 101.168C289.313 102.631 287.896 103.587 286.432 103.303C284.968 103.018 284.013 101.601 284.297 100.138L290.994 65.6864ZM330.716 74.6807C329.333 74.1222 327.76 74.7901 327.201 76.1725L314.054 108.713C313.496 110.095 314.163 111.669 315.546 112.227C316.928 112.786 318.502 112.118 319.06 110.736L332.208 78.1952C332.766 76.8127 332.098 75.2393 330.716 74.6807ZM360.904 93.572C361.716 92.3215 363.388 91.9661 364.638 92.7782C365.889 93.5902 366.244 95.2622 365.432 96.5127L346.317 125.947C345.505 127.197 343.833 127.553 342.583 126.74C341.332 125.928 340.977 124.256 341.789 123.006L360.904 93.572ZM394.549 116.859C393.477 115.823 391.767 115.853 390.732 116.925L366.352 142.171C365.316 143.244 365.346 144.953 366.419 145.989C367.491 147.024 369.2 146.995 370.236 145.922L394.616 120.676C395.651 119.604 395.622 117.895 394.549 116.859ZM414.985 145.964C416.221 145.13 417.899 145.457 418.733 146.693C419.566 147.929 419.24 149.607 418.004 150.441L388.908 170.066C387.672 170.9 385.994 170.574 385.16 169.337C384.327 168.101 384.653 166.423 385.889 165.59L414.985 145.964ZM436.918 180.419C436.335 179.047 434.75 178.407 433.378 178.989L401.072 192.702C399.699 193.285 399.059 194.87 399.641 196.242C400.224 197.615 401.809 198.255 403.181 197.672L435.487 183.959C436.86 183.377 437.5 181.792 436.918 180.419ZM444.884 215.375C446.348 215.09 447.765 216.046 448.049 217.51C448.334 218.973 447.378 220.39 445.914 220.675L411.463 227.372C409.999 227.656 408.582 226.7 408.298 225.237C408.013 223.773 408.969 222.356 410.433 222.071L444.884 215.375ZM294.159 447.842C292.695 448.127 291.278 447.171 290.994 445.707L284.297 411.256C284.013 409.793 284.968 408.375 286.432 408.091C287.896 407.806 289.313 408.762 289.597 410.226L296.294 444.677C296.578 446.141 295.623 447.558 294.159 447.842ZM327.201 435.221C327.76 436.604 329.333 437.272 330.716 436.713C332.098 436.154 332.766 434.581 332.208 433.199L319.06 400.658C318.502 399.276 316.928 398.608 315.546 399.166C314.163 399.725 313.496 401.298 314.054 402.681L327.201 435.221ZM364.638 418.616C363.388 419.428 361.716 419.072 360.904 417.822L341.789 388.388C340.977 387.137 341.332 385.465 342.583 384.653C343.833 383.841 345.505 384.197 346.317 385.447L365.432 414.881C366.244 416.132 365.889 417.804 364.638 418.616ZM390.732 394.468C391.767 395.541 393.477 395.571 394.549 394.535C395.622 393.499 395.651 391.79 394.616 390.718L370.236 365.472C369.2 364.399 367.491 364.369 366.419 365.405C365.346 366.441 365.316 368.15 366.352 369.222L390.732 394.468ZM418.733 364.701C417.899 365.937 416.221 366.263 414.985 365.43L385.889 345.804C384.653 344.97 384.327 343.292 385.16 342.056C385.994 340.82 387.672 340.494 388.908 341.328L418.004 360.953C419.24 361.787 419.566 363.465 418.733 364.701ZM433.378 332.405C434.75 332.987 436.335 332.347 436.918 330.974C437.5 329.602 436.86 328.017 435.487 327.434L403.181 313.721C401.809 313.139 400.224 313.779 399.641 315.151C399.059 316.524 399.699 318.109 401.072 318.691L433.378 332.405ZM448.049 293.884C447.765 295.348 446.348 296.303 444.884 296.019L410.433 289.322C408.969 289.038 408.013 287.621 408.298 286.157C408.582 284.693 409.999 283.738 411.463 284.022L445.914 290.719C447.378 291.003 448.334 292.42 448.049 293.884ZM220.878 445.139C220.593 446.603 219.176 447.559 217.713 447.274C216.249 446.99 215.293 445.573 215.578 444.109L222.274 409.658C222.559 408.194 223.976 407.238 225.439 407.523C226.903 407.807 227.859 409.225 227.574 410.688L220.878 445.139ZM181.156 436.145C182.538 436.704 184.112 436.036 184.67 434.653L197.817 402.113C198.376 400.73 197.708 399.157 196.326 398.598C194.943 398.04 193.37 398.708 192.811 400.09L179.664 432.631C179.105 434.013 179.773 435.587 181.156 436.145ZM150.968 417.254C150.156 418.504 148.484 418.86 147.233 418.048C145.983 417.236 145.627 415.564 146.439 414.313L165.554 384.879C166.366 383.629 168.038 383.273 169.289 384.085C170.539 384.897 170.895 386.569 170.082 387.82L150.968 417.254ZM117.323 393.967C118.395 395.003 120.104 394.973 121.14 393.9L145.52 368.654C146.555 367.582 146.526 365.873 145.453 364.837C144.38 363.801 142.671 363.831 141.636 364.904L117.256 390.15C116.22 391.222 116.25 392.931 117.323 393.967ZM96.8868 364.862C95.6507 365.695 93.9728 365.369 93.139 364.133C92.3053 362.897 92.6314 361.219 93.8675 360.385L122.963 340.76C124.2 339.926 125.878 340.252 126.711 341.488C127.545 342.724 127.219 344.402 125.983 345.236L96.8868 364.862ZM74.954 330.406C75.5366 331.779 77.1215 332.419 78.494 331.837L110.8 318.124C112.172 317.541 112.813 315.956 112.23 314.584C111.648 313.211 110.063 312.571 108.69 313.153L76.3842 326.866C75.0118 327.449 74.3714 329.034 74.954 330.406ZM66.9876 295.451C65.524 295.736 64.1069 294.78 63.8224 293.316C63.5379 291.852 64.4937 290.435 65.9573 290.151L100.409 283.454C101.872 283.17 103.289 284.126 103.574 285.589C103.858 287.053 102.902 288.47 101.439 288.754L66.9876 295.451ZM451.653 255.432C451.653 253.941 450.444 252.733 448.953 252.733H413.857C412.366 252.733 411.157 253.941 411.157 255.432C411.157 256.923 412.366 258.132 413.857 258.132H448.953C450.444 258.132 451.653 256.923 451.653 255.432ZM220.878 65.6864C220.593 64.2228 219.176 63.2669 217.713 63.5514C216.249 63.8359 215.293 65.253 215.578 66.7166L222.274 101.168C222.559 102.631 223.976 103.587 225.439 103.303C226.903 103.018 227.859 101.601 227.574 100.138L220.878 65.6864ZM181.156 74.6807C182.538 74.1222 184.112 74.7901 184.67 76.1725L197.817 108.713C198.376 110.095 197.708 111.669 196.326 112.227C194.943 112.786 193.37 112.118 192.811 110.736L179.664 78.1952C179.105 76.8127 179.773 75.2393 181.156 74.6807ZM150.968 93.572C150.156 92.3215 148.484 91.9661 147.233 92.7782C145.983 93.5902 145.627 95.2622 146.439 96.5127L165.554 125.947C166.366 127.197 168.038 127.553 169.289 126.74C170.539 125.928 170.895 124.256 170.082 123.006L150.968 93.572ZM117.323 116.859C118.395 115.823 120.104 115.853 121.14 116.925L145.52 142.171C146.555 143.244 146.526 144.953 145.453 145.989C144.38 147.024 142.671 146.995 141.636 145.922L117.256 120.676C116.22 119.604 116.25 117.895 117.323 116.859ZM96.8868 145.964C95.6507 145.13 93.9728 145.457 93.139 146.693C92.3053 147.929 92.6314 149.607 93.8675 150.441L122.963 170.066C124.2 170.9 125.878 170.574 126.711 169.337C127.545 168.101 127.219 166.423 125.983 165.59L96.8868 145.964ZM74.954 180.419C75.5366 179.047 77.1215 178.407 78.494 178.989L110.8 192.702C112.172 193.285 112.813 194.87 112.23 196.242C111.648 197.615 110.063 198.255 108.69 197.672L76.3842 183.959C75.0118 183.377 74.3714 181.792 74.954 180.419ZM66.9876 215.375C65.524 215.09 64.1069 216.046 63.8224 217.51C63.5379 218.973 64.4937 220.39 65.9573 220.675L100.409 227.372C101.872 227.656 103.289 226.7 103.574 225.237C103.858 223.773 102.902 222.356 101.439 222.071L66.9876 215.375ZM60.219 255.432C60.219 253.941 61.4277 252.733 62.9187 252.733H98.0147C99.5057 252.733 100.714 253.941 100.714 255.432C100.714 256.923 99.5057 258.132 98.0147 258.132H62.9187C61.4277 258.132 60.219 256.923 60.219 255.432ZM272.05 63.3001C272.18 61.8147 273.49 60.716 274.975 60.8459C276.46 60.9759 277.559 62.2853 277.429 63.7706L276.096 79.0107C275.966 80.496 274.656 81.5948 273.171 81.4648C271.686 81.3349 270.587 80.0254 270.717 78.5401L272.05 63.3001ZM312.634 68.2345C311.201 67.8235 309.706 68.6523 309.295 70.0855L305.078 84.7911C304.667 86.2244 305.496 87.7194 306.929 88.1304C308.362 88.5414 309.857 87.7126 310.268 86.2794L314.485 71.5738C314.896 70.1405 314.067 68.6455 312.634 68.2345ZM344.378 84.2931C345.055 82.9646 346.681 82.4363 348.009 83.1132C349.338 83.7901 349.866 85.4158 349.189 86.7443L342.244 100.375C341.567 101.704 339.941 102.232 338.613 101.555C337.284 100.878 336.756 99.2524 337.433 97.9239L344.378 84.2931ZM379.812 104.35C378.637 103.432 376.94 103.641 376.023 104.816L366.604 116.871C365.686 118.046 365.894 119.742 367.069 120.66C368.244 121.578 369.941 121.37 370.859 120.195L380.277 108.14C381.195 106.965 380.987 105.268 379.812 104.35ZM403.11 130.967C404.236 129.988 405.941 130.108 406.919 131.233C407.897 132.358 407.778 134.063 406.653 135.042L395.107 145.078C393.982 146.056 392.276 145.937 391.298 144.812C390.32 143.687 390.439 141.981 391.565 141.003L403.11 130.967ZM428.59 162.8C427.844 161.509 426.193 161.067 424.902 161.812L411.653 169.461C410.362 170.207 409.92 171.858 410.665 173.149C411.411 174.44 413.062 174.883 414.353 174.137L427.602 166.488C428.893 165.743 429.335 164.092 428.59 162.8ZM439.743 196.554C441.153 196.068 442.69 196.818 443.175 198.228C443.66 199.637 442.911 201.174 441.501 201.659L427.037 206.64C425.627 207.125 424.09 206.376 423.605 204.966C423.12 203.556 423.869 202.02 425.279 201.534L439.743 196.554ZM450.714 235.86C450.507 234.383 449.142 233.354 447.665 233.562L432.516 235.691C431.039 235.899 430.01 237.264 430.218 238.74C430.425 240.217 431.791 241.245 433.267 241.038L448.417 238.909C449.893 238.701 450.922 237.336 450.714 235.86ZM272.05 447.526C272.18 449.011 273.49 450.11 274.975 449.98C276.46 449.85 277.559 448.541 277.429 447.055L276.096 431.815C275.966 430.33 274.656 429.231 273.171 429.361C271.686 429.491 270.587 430.8 270.717 432.286L272.05 447.526ZM312.634 442.591C311.201 443.002 309.706 442.174 309.295 440.74L305.078 426.035C304.667 424.601 305.496 423.106 306.929 422.695C308.362 422.284 309.857 423.113 310.268 424.546L314.485 439.252C314.896 440.685 314.067 442.18 312.634 442.591ZM344.378 426.533C345.055 427.861 346.681 428.389 348.009 427.713C349.338 427.036 349.866 425.41 349.189 424.081L342.244 410.451C341.567 409.122 339.941 408.594 338.613 409.271C337.284 409.948 336.756 411.573 337.433 412.902L344.378 426.533ZM379.812 406.475C378.637 407.393 376.94 407.185 376.023 406.01L366.604 393.955C365.686 392.78 365.894 391.083 367.069 390.165C368.244 389.248 369.941 389.456 370.859 390.631L380.277 402.686C381.195 403.861 380.987 405.558 379.812 406.475ZM403.11 379.859C404.236 380.837 405.941 380.718 406.919 379.593C407.897 378.468 407.778 376.762 406.653 375.784L395.107 365.748C393.982 364.77 392.276 364.889 391.298 366.014C390.32 367.139 390.439 368.844 391.565 369.823L403.11 379.859ZM428.59 348.025C427.844 349.317 426.193 349.759 424.902 349.014L411.653 341.364C410.362 340.619 409.92 338.968 410.665 337.677C411.411 336.385 413.062 335.943 414.353 336.688L427.602 344.338C428.893 345.083 429.335 346.734 428.59 348.025ZM439.743 314.272C441.153 314.757 442.69 314.008 443.175 312.598C443.66 311.189 442.911 309.652 441.501 309.167L427.037 304.186C425.627 303.701 424.09 304.45 423.605 305.86C423.12 307.27 423.869 308.806 425.279 309.291L439.743 314.272ZM450.714 274.966C450.507 276.443 449.142 277.471 447.665 277.264L432.516 275.135C431.039 274.927 430.01 273.562 430.218 272.086C430.425 270.609 431.791 269.58 433.267 269.788L448.417 271.917C449.893 272.124 450.922 273.49 450.714 274.966ZM239.95 447.526C239.82 449.011 238.51 450.11 237.025 449.98C235.54 449.85 234.441 448.541 234.571 447.055L235.904 431.815C236.034 430.33 237.344 429.231 238.829 429.361C240.314 429.491 241.413 430.8 241.283 432.286L239.95 447.526ZM199.366 442.591C200.799 443.002 202.294 442.174 202.705 440.74L206.922 426.035C207.333 424.601 206.504 423.106 205.071 422.695C203.638 422.284 202.143 423.113 201.732 424.546L197.515 439.252C197.104 440.685 197.933 442.18 199.366 442.591ZM167.622 426.533C166.945 427.861 165.319 428.389 163.99 427.713C162.662 427.036 162.134 425.41 162.811 424.081L169.756 410.451C170.433 409.122 172.059 408.594 173.387 409.271C174.715 409.948 175.244 411.573 174.567 412.902L167.622 426.533ZM132.188 406.475C133.363 407.393 135.059 407.185 135.977 406.01L145.396 393.955C146.314 392.78 146.106 391.083 144.931 390.165C143.756 389.248 142.059 389.456 141.141 390.631L131.723 402.686C130.805 403.861 131.013 405.558 132.188 406.475ZM108.89 379.859C107.764 380.837 106.059 380.718 105.081 379.593C104.103 378.468 104.222 376.762 105.347 375.784L116.893 365.748C118.018 364.77 119.724 364.889 120.702 366.014C121.68 367.139 121.561 368.844 120.435 369.823L108.89 379.859ZM83.4101 348.025C84.1556 349.317 85.8067 349.759 87.0979 349.014L100.347 341.364C101.638 340.619 102.08 338.968 101.335 337.677C100.589 336.385 98.9381 335.943 97.6469 336.688L84.3982 344.338C83.107 345.083 82.6646 346.734 83.4101 348.025ZM72.2564 314.272C70.8467 314.757 69.3103 314.008 68.8249 312.598C68.3395 311.189 69.0888 309.652 70.4986 309.167L84.9634 304.186C86.3731 303.701 87.9095 304.45 88.3949 305.86C88.8803 307.27 88.131 308.806 86.7212 309.291L72.2564 314.272ZM61.2857 274.966C61.4932 276.443 62.8584 277.471 64.3349 277.264L79.4843 275.135C80.9608 274.927 81.9895 273.562 81.782 272.086C81.5745 270.609 80.2093 269.58 78.7328 269.788L63.5834 271.917C62.1069 272.124 61.0782 273.49 61.2857 274.966ZM239.95 63.3001C239.82 61.8147 238.51 60.716 237.025 60.8459C235.54 60.9759 234.441 62.2853 234.571 63.7706L235.904 79.0107C236.034 80.496 237.344 81.5948 238.829 81.4648C240.314 81.3349 241.413 80.0254 241.283 78.5401L239.95 63.3001ZM199.366 68.2345C200.799 67.8235 202.294 68.6523 202.705 70.0855L206.922 84.7911C207.333 86.2244 206.504 87.7194 205.071 88.1304C203.638 88.5414 202.143 87.7126 201.732 86.2794L197.515 71.5738C197.104 70.1405 197.933 68.6455 199.366 68.2345ZM167.622 84.2931C166.945 82.9646 165.319 82.4363 163.99 83.1132C162.662 83.7901 162.134 85.4158 162.811 86.7443L169.756 100.375C170.433 101.704 172.059 102.232 173.387 101.555C174.715 100.878 175.244 99.2524 174.567 97.9239L167.622 84.2931ZM132.188 104.35C133.363 103.432 135.059 103.641 135.977 104.816L145.396 116.871C146.314 118.046 146.106 119.742 144.931 120.66C143.756 121.578 142.059 121.37 141.141 120.195L131.723 108.14C130.805 106.965 131.013 105.268 132.188 104.35ZM108.89 130.967C107.764 129.988 106.059 130.108 105.081 131.233C104.103 132.358 104.222 134.063 105.347 135.042L116.893 145.078C118.018 146.056 119.724 145.937 120.702 144.812C121.68 143.687 121.561 141.981 120.435 141.003L108.89 130.967ZM83.4101 162.8C84.1556 161.509 85.8067 161.067 87.0979 161.812L100.347 169.461C101.638 170.207 102.08 171.858 101.335 173.149C100.589 174.44 98.9381 174.883 97.6469 174.137L84.3982 166.488C83.107 165.743 82.6646 164.092 83.4101 162.8ZM72.2564 196.554C70.8467 196.068 69.3103 196.818 68.8249 198.228C68.3395 199.637 69.0888 201.174 70.4986 201.659L84.9634 206.64C86.3731 207.125 87.9095 206.376 88.3949 204.966C88.8803 203.556 88.131 202.02 86.7212 201.534L72.2564 196.554ZM61.2857 235.86C61.4932 234.383 62.8584 233.354 64.3349 233.562L79.4843 235.691C80.9608 235.899 81.9895 237.264 81.782 238.74C81.5745 240.217 80.2093 241.245 78.7328 241.038L63.5834 238.909C62.1069 238.701 61.0782 237.336 61.2857 235.86Z" fill="url(#paint3_linear)"/>
<g filter="url(#filter1_d)">
<path fill-rule="evenodd" clip-rule="evenodd" d="M113.537 395.799L231.317 231.019L398.036 113.999L279.747 279.655L113.537 395.799Z" fill="black" fill-opacity="0.01"/>
</g>
<path fill-rule="evenodd" clip-rule="evenodd" d="M231.469 230.691L255.487 255.015L113.274 396.285L231.469 230.691V230.691Z" fill="white"/>
<path fill-rule="evenodd" clip-rule="evenodd" d="M255.51 254.913L280.039 279.177L113.495 395.986L255.51 254.913V254.913Z" fill="#ACACAC"/>
<path fill-rule="evenodd" clip-rule="evenodd" d="M279.757 279.492L255.738 255.168L397.952 113.898L279.757 279.492V279.492Z" fill="#D01414"/>
<path fill-rule="evenodd" clip-rule="evenodd" d="M255.716 255.27L231.186 231.006L397.731 114.196L255.716 255.27V255.27Z" fill="#FE514E"/>
</g>
<defs>
<filter id="filter0_di" x="-7.70801" y="13.292" width="527.124" height="527.124" filterUnits="userSpaceOnUse" color-interpolation-filters="sRGB">
<feFlood flood-opacity="0" result="BackgroundImageFix"/>
<feColorMatrix in="SourceAlpha" type="matrix" values="0 0 0 0 0 0 0 0 0 0 0 0 0 0 0 0 0 0 127 0"/>
<feOffset dy="21"/>
<feGaussianBlur stdDeviation="19.5"/>
<feColorMatrix type="matrix" values="0 0 0 0 0 0 0 0 0 0 0 0 0 0 0 0 0 0 0.237404 0"/>
<feBlend mode="normal" in2="BackgroundImageFix" result="effect1_dropShadow"/>
<feBlend mode="normal" in="SourceGraphic" in2="effect1_dropShadow" result="shape"/>
<feColorMatrix in="SourceAlpha" type="matrix" values="0 0 0 0 0 0 0 0 0 0 0 0 0 0 0 0 0 0 127 0" result="hardAlpha"/>
<feOffset/>
<feGaussianBlur stdDeviation="39"/>
<feComposite in2="hardAlpha" operator="arithmetic" k2="-1" k3="1"/>
<feColorMatrix type="matrix" values="0 0 0 0 0 0 0 0 0 0.446476 0 0 0 0 0.863467 0 0 0 1 0"/>
<feBlend mode="normal" in2="shape" result="effect2_innerShadow"/>
</filter>
<filter id="filter1_d" x="113.537" y="104.999" width="302.5" height="299.8" filterUnits="userSpaceOnUse" color-interpolation-filters="sRGB">
<feFlood flood-opacity="0" result="BackgroundImageFix"/>
<feColorMatrix in="SourceAlpha" type="matrix" values="0 0 0 0 0 0 0 0 0 0 0 0 0 0 0 0 0 0 127 0"/>
<feOffset dx="9"/>
<feGaussianBlur stdDeviation="4.5"/>
<feColorMatrix type="matrix" values="0 0 0 0 0 0 0 0 0 0 0 0 0 0 0 0 0 0 0.5 0"/>
<feBlend mode="normal" in2="BackgroundImageFix" result="effect1_dropShadow"/>
<feBlend mode="normal" in="SourceGraphic" in2="effect1_dropShadow" result="shape"/>
</filter>
<radialGradient id="paint0_radial" cx="0" cy="0" r="1" gradientUnits="userSpaceOnUse" gradientTransform="translate(255.854 251.78) rotate(-90) scale(236.725 245.811)">
<stop stop-color="#34DAF5"/>
<stop offset="0.477954" stop-color="#059FEB"/>
<stop offset="1" stop-color="#075ED6"/>
</radialGradient>
<linearGradient id="paint1_linear" x1="51" y1="51" x2="51" y2="460.708" gradientUnits="userSpaceOnUse">
<stop stop-color="#FCFEFE"/>
<stop offset="1" stop-color="#C8D0D4"/>
</linearGradient>
<linearGradient id="paint2_linear" x1="312.133" y1="119.124" x2="312.133" y2="6.56576" gradientUnits="userSpaceOnUse">
<stop stop-color="#2BBDEE" stop-opacity="0.01"/>
<stop offset="1" stop-color="#2FBBF3"/>
</linearGradient>
<linearGradient id="paint3_linear" x1="60.219" y1="59.835" x2="60.219" y2="451.488" gradientUnits="userSpaceOnUse">
<stop stop-color="#FCFEFE"/>
<stop offset="1" stop-color="#C8D0D4"/>
</linearGradient>
<clipPath id="clip0">
<rect width="512" height="512" fill="white"/>
</clipPath>
</defs>
</svg>
